<svg width="10" height="10" viewBox="0 0 10 10" fill="none" xmlns="http://www.w3.org/2000/svg">
<g id="Copyright">
<path id="Vector" d="M5 8.75003C7.07107 8.75003 8.75 7.0711 8.75 5.00003C8.75 2.92896 7.07107 1.25003 5 1.25003C2.92893 1.25003 1.25 2.92896 1.25 5.00003C1.25 7.0711 2.92893 8.75003 5 8.75003Z" stroke="black" stroke-width="0.5" stroke-linecap="round" stroke-linejoin="round"/>
<path id="Vector_2" d="M6.25 5.93753C6.05324 6.19988 5.77891 6.39368 5.46589 6.49146C5.15286 6.58924 4.81701 6.58605 4.50589 6.48235C4.19478 6.37864 3.92418 6.17968 3.73243 5.91364C3.54068 5.6476 3.4375 5.32797 3.4375 5.00003C3.4375 4.67209 3.54068 4.35246 3.73243 4.08642C3.92418 3.82038 4.19478 3.62142 4.50589 3.51771C4.81701 3.41401 5.15286 3.41082 5.46589 3.5086C5.77891 3.60638 6.05324 3.80018 6.25 4.06253" stroke="black" stroke-width="0.5" stroke-linecap="round" stroke-linejoin="round"/>
</g>
</svg>
