<svg width="54" height="54" viewBox="0 0 54 54" fill="none" xmlns="http://www.w3.org/2000/svg">
<path d="M38.1817 43.8855C37.6328 39.4408 33.8432 36 29.25 36H24.75C20.1568 36 16.3672 39.4408 15.8183 43.8855M38.1817 43.8855C43.6469 40.2592 47.25 34.0504 47.25 27C47.25 15.8162 38.1838 6.75 27 6.75C15.8162 6.75 6.75 15.8162 6.75 27C6.75 34.0504 10.3531 40.2592 15.8183 43.8855M38.1817 43.8855C34.9776 46.0116 31.1334 47.25 27 47.25C22.8666 47.25 19.0224 46.0116 15.8183 43.8855M33.75 22.5C33.75 26.2279 30.7279 29.25 27 29.25C23.2721 29.25 20.25 26.2279 20.25 22.5C20.25 18.7721 23.2721 15.75 27 15.75C30.7279 15.75 33.75 18.7721 33.75 22.5Z" stroke="black" stroke-opacity="0.7" stroke-width="2" stroke-linecap="round" stroke-linejoin="round"/>
</svg>
